# xmcd
# 
# Track frame offsets:
#     150
#     19307
#     46825
# 
# Disc length: 906
# 
# Revision: 2
# Processed by: cddbd v1.5.2PL0 Copyright (c) Steve Scherf et al.
# Submitted via: fre:ac v1.0.31
# 
DISCID=1c038803
DTITLE=館林見晴 with S: - もしも私が天使だったら
DYEAR=1997
DGENRE=Pop
TTITLE0=もしも私が天使だったら
TTITLE1=無口な風
TTITLE2=ANGEL EYES
EXTD=
EXTT0=
EXTT1=
EXTT2=
PLAYORDER=
